<svg width="5095.2266" height="1365.6667" xmlns="http://www.w3.org/2000/svg">
 <metadata id="metadata8">image/svg+xml</metadata>
 <defs>
  <clipPath clipPathUnits="userSpaceOnUse" id="clipPath18">
   <path d="m351.309296,1193.895779c-61.096,-61.096 -94.743,-142.328 -94.743,-228.731l0,0c0,-86.34 33.599,-167.516 94.611,-228.596l0,0c0.045,-0.045 0.088,-0.091 0.132,-0.135l0,0c0.044,-0.045 0.09,-0.087 0.134,-0.131l0,0c61.081,-61.012 142.257,-94.611 228.596,-94.611l0,0c86.404,0 167.636,33.647 228.731,94.743l0,0c61.096,61.095 94.743,142.327 94.743,228.73l0,0c0,86.403 -33.647,167.635 -94.743,228.731l0,0c-61.095,61.097 -142.327,94.744 -228.731,94.744l0,0c-86.402,0 -167.634,-33.647 -228.73,-94.744m228.73,41.827c149.187,0 270.558,-121.372 270.558,-270.558l0,0c0,-145.27 -115.091,-264.15 -258.878,-270.288l0,0c21.328,10.095 41.31,23.939 58.928,41.557l0,0c69.673,69.673 80.524,176.233 32.556,257.399l0,0c9.432,19.952 29.733,33.803 53.22,33.844l0,0c16.647,-0.041 30.177,-13.596 30.177,-30.252l0,0c0,-7.028 -5.683,-12.752 -12.694,-12.822l0,0c-0.947,0.024 -1.683,0.776 -1.683,1.73l0,0c0,8.768 -7.107,15.874 -15.875,15.874l0,0c-8.767,0 -15.875,-7.106 -15.875,-15.874l0,0c0,-18.403 14.925,-33.385 33.305,-33.481l0,0l0.176,0c24.498,0.096 44.395,20.054 44.395,44.573l0,0c0,34.129 -27.717,61.906 -61.824,62.001l0,0l-0.177,0c-12.638,-0.023 -24.676,-2.65 -35.611,-7.362l0,0l68.526,102.334l-102.295,-68.498c4.701,10.923 7.318,22.944 7.343,35.565l0,0l0,0.176c-0.096,34.107 -27.873,61.825 -62.003,61.825l0,0c-24.518,0 -44.476,-19.899 -44.571,-44.396l0,0l0,-0.176c0.095,-18.381 15.078,-33.305 33.48,-33.305l0,0c8.768,0 15.875,7.107 15.875,15.876l0,0c0,8.767 -7.107,15.874 -15.875,15.874l0,0c-0.954,0 -1.705,0.735 -1.729,1.682l0,0c0.068,7.011 5.793,12.694 12.82,12.694l0,0c16.657,0 30.213,-13.53 30.252,-30.177l0,0c-0.039,-23.485 -13.888,-43.784 -33.84,-53.218l0,0c-81.166,47.978 -187.733,37.13 -257.411,-32.547l0,0c-17.618,-17.619 -31.463,-37.602 -41.558,-58.93l0,0c6.138,143.789 125.017,258.88 270.288,258.88m-183.857,-468.85c-4.989,4.629 -9.801,9.443 -14.431,14.432l0,0c-54.814,62.278 -52.497,157.578 6.976,217.05l0,0c30.948,30.949 71.6,46.423 112.251,46.423l0,0c40.652,0 81.304,-15.474 112.252,-46.423l0,0c61.895,-61.896 61.895,-162.608 0,-224.503l0,0c-30.944,-30.944 -71.593,-46.415 -112.238,-46.416l0,0c-37.47,-0.001 -74.936,13.145 -104.81,39.437" id="path16"/>
  </clipPath>
  <clipPath clipPathUnits="userSpaceOnUse" id="clipPath40">
   <path d="m620.68401,766.58901c0,-16.463 13.346,-29.809 29.809,-29.809l0,0c16.463,0 29.809,13.346 29.809,29.809l0,0c0,16.463 -13.346,29.809 -29.809,29.809l0,0c-16.463,0 -29.809,-13.346 -29.809,-29.809" id="path38"/>
  </clipPath>
  <clipPath clipPathUnits="userSpaceOnUse" id="clipPath62">
   <path d="m-828.025782,2043.712445l4641.17,0l0,-1703.003l-4641.17,0l0,1703.003z" id="path60"/>
  </clipPath>
 </defs>
 <g>
  <title>background</title>
  <rect fill="none" id="canvas_background" height="1367.6667" width="5097.2266" y="-1" x="-1"/>
 </g>
 <g>
  <title>Layer 1</title>
  <g id="g10" transform="matrix(1.3333333,0,0,-1.3333333,0,2270.6667) ">
   <g stroke="null" id="g56">
    <g stroke="null" id="g58" clip-path="url(#clipPath62)">
     <g stroke="null" id="g64">
      <path fill="#ffffff" fill-rule="nonzero" d="m1102.208105,1317.939669c-70.063,0 -127.064,-57.001 -127.064,-127.064c0,-70.064 57.001,-127.065 127.064,-127.065c70.064,0 127.065,57.001 127.065,127.065c0,70.063 -57.001,127.064 -127.065,127.064m0,-307.129c-99.288,0 -180.064,80.776 -180.064,180.065c0,99.288 80.776,180.064 180.064,180.064c99.288,0 180.065,-80.776 180.065,-180.064c0,-99.289 -80.777,-180.065 -180.065,-180.065" id="path66"/>
     </g>
     <g stroke="null" id="g68">
      <path fill="#ffffff" fill-rule="nonzero" d="m3245.50498,1010.810763l-175.274,0c0,29.271 23.729,53 53,53l122.566,0c27.534,0 50.595,21.782 51.117,49.31c0.535,28.169 -22.223,51.254 -50.273,51.254l-71.991,0c-56.993,0 -104.09,45.688 -104.417,102.68c-0.329,57.225 46.129,103.885 103.28,103.885l176.41,0c0,-29.271 -23.728,-53 -53,-53l-122.566,0c-27.533,0 -50.594,-21.782 -51.117,-49.31c-0.534,-28.169 22.224,-51.255 50.273,-51.255l73.128,0c57.152,0 103.609,-46.659 103.281,-103.885c-0.327,-56.991 -47.424,-102.679 -104.417,-102.679" id="path70"/>
     </g>
     <g stroke="null" id="g72">
      <path fill="#ffffff" fill-rule="nonzero" d="m646.771826,1010.810763l-175.275,0c0,29.271 23.729,53 53,53l122.567,0c27.533,0 50.594,21.782 51.117,49.31c0.535,28.169 -22.224,51.254 -50.273,51.254l-71.992,0c-56.993,0 -104.09,45.688 -104.417,102.68c-0.328,57.225 46.13,103.885 103.281,103.885l176.41,0c0,-29.271 -23.729,-53 -53,-53l-122.567,0c-27.533,0 -50.594,-21.782 -51.116,-49.31c-0.535,-28.169 22.224,-51.255 50.273,-51.255l73.128,0c57.151,0 103.609,-46.659 103.281,-103.885c-0.327,-56.991 -47.424,-102.679 -104.417,-102.679" id="path74"/>
     </g>
     <g stroke="null" id="g76">
      <path fill="#ffffff" fill-rule="nonzero" d="m1671.873877,1010.810763l-149.09,0c-24.603,0 -44.548,19.945 -44.548,44.548l0,315.581c29.271,0 53,-23.729 53,-53l0,-254.129l87.638,0c29.271,0 53,-23.729 53,-53" id="path78"/>
     </g>
     <g stroke="null" id="g80">
      <path fill="#ffffff" fill-rule="nonzero" d="m2869.77207,1010.810763l0,0c-29.271,0 -53,23.729 -53,53l0,307.129c29.271,0 53,-23.729 53,-53l0,-307.129z" id="path82"/>
     </g>
     <g stroke="null" id="g84">
      <path fill="#ffffff" fill-rule="nonzero" d="m1919.555517,1063.810275l94.334,227.741l94.334,-227.741c13.289,-32.082 44.594,-53 79.319,-53l0.001,0l-139.803,337.511c-5.671,13.691 -19.031,22.618 -33.851,22.618l0,0c-14.82,0 -28.18,-8.927 -33.852,-22.618l-139.802,-337.511c34.725,0 66.031,20.918 79.32,53" id="path86"/>
     </g>
     <g stroke="null" id="g88">
      <path fill="#ffffff" fill-rule="nonzero" d="m2043.656103,1123.127169c0,-16.44 -13.327,-29.767 -29.767,-29.767c-16.439,0 -29.766,13.327 -29.766,29.767c0,16.44 13.327,29.767 29.766,29.767c16.44,0 29.767,-13.327 29.767,-29.767" id="path90"/>
     </g>
     <g stroke="null" id="g92">
      <path fill="#ffffff" fill-rule="nonzero" d="m2502.793798,1129.883944c57.268,9.898 100.922,60.052 100.669,120.163c-0.283,67.056 -55.606,120.893 -122.663,120.893l-121.849,0l0,-307.129c0,-29.271 23.729,-53 53,-53l0,0l0,307.129l69.061,0c37.543,0 68.872,-29.814 69.444,-67.353c0.582,-38.209 -30.33,-69.476 -68.406,-69.476l-43.599,0l0,-62.952l84.392,-80.944c17.666,-16.944 41.197,-26.404 65.675,-26.404l38.422,0l-124.146,119.073z" id="path94"/>
     </g>
    </g>
   </g>
  </g>
 </g>
</svg>